<?xml version="1.0" encoding="UTF-8" standalone="no"?>
<!-- 
Base16 background project by Lodobo, https://github.com/Lodobo
Scheme: Rosé Pine by Emilia Dunfelt &lt;edun@dunfelt.se&gt;

Logo by aodrael, https://www.aodrael.xyz/
-->
<svg height="1080" version="1.1" viewBox="0 0 1920 1080" width="1920" xmlns="http://www.w3.org/2000/svg">
    <rect fill="#191724" height="100%" width="100%" />
    <g transform="translate(1250,450)">
        <svg version="1.1" width="500" height="500" viewBox="0 0 500 500" xml:space="preserve"
            xmlns="http://www.w3.org/2000/svg" xmlns:svg="http://www.w3.org/2000/svg">
            <g transform="matrix(0.643,0,0,0.643,-55.4,-32.9)">
                <path fill="#eb6f92"
                    d="m 570,828 c -20,0 -45,-3 -61,-19 -26,-24 -24,-65 -11,-96 -35,4 -75,1 -103,-23 -11,-9 -5,-25 1,-35 -18,0 1,-20 -3,-27 -12,-3 -22,-24 -30,-7 -18,16 -44,27 -68,24 -41,-8 -69,-48 -73,-88 C 189,543 154,524 136,491 108,448 93.5,397 99.9,345 101,326 122,320 138,324 c 28,5 55,19 80,31 4,-17 34,-27 7,-38 -29,-31 -45,-75 -35,-117 12,-48 51,-94 101,-103.4 24,-3.9 52,12.4 49,38.4 -2,31 -1,66 26,87 26,17 56,-3 77,-19 15,-11 37,-8 47,-24 11,-16 30,-30 48,-42 30,-19 67,-31 103,-24 4,-14.7 3,-33.3 17,-44.2 26,-18.1 63,-25.9 90,-5.9 31,20.3 51,53.1 67,86.1 5,15 11,34 13,47 4,21 1,45 -1,66 15,22 23,49 24,76 -3,42 -27,81 -64,102 -18,10 -40,14 -60,11 1,41 -13,82 -39,113 -10,10 -20,21 -24,35 -9,14 -19,29 -27,44 -4,44 24,89 4,132 -12,28 -41,48 -71,53 z m 4,-10 c 26,-5 48,-24 58,-47 16,-32 0,-66 -3,-99 3,-32 -8,-15 -24,-3 -13,12 -33,18 -45,29 -4,22 -7,46 0,69 -16,9 -14,-28 -14,-39 6,-24 3,-34 -21,-20 -22,-1 -25,24 -26,42 -7,34 21,68 56,68 6,-1 13,1 19,0 z M 467,705 c 25,0 52,-3 76,-14 49,-16 91,-52 113,-99 12,-19 15,-42 20,-63 3,-20 1,-42 -6,-60 -23,7 3,-31 18,-20 -2,12 -18,10 -6,26 9,28 5,58 -4,86 18,-20 29,-44 36,-69 4,-21 9,-45 -13,-55 -33,-30 -54,-71 -69,-113 -8,-16 3,-49 -13,-18 -20,32 -56,56 -95,52 -31,-5 -55,-30 -62,-61 -8,-32 -3,-68 14,-97 -31,7 -52,37 -85,37 -37,5 -59,-36 -61,-68 -1,-20 9,-51 -16,-60 -38,-10.8 -73,19 -94,48 -25,35 -32,86 -9,125 15,28 42,51 73,58 8,6 46,4 27,15 -23,2 -52,11 -62,34 2,25 27,44 49,51 31,6 63,-6 85,-28 21,-8 -31,33 -6,45 25,6 45,-18 58,-37 16,-11 13,-58 20,-57 3,18 -2,42 -12,60 -15,21 -37,48 -66,43 -19,1 -9,-30 -18,-25 -29,15 -64,13 -91,-5 -16,-13 -31,-31 -29,-53 -25,-26 -62,-36 -95,-48 -20,-9 -42,3 -36,26 0,55 19,113 59,153 15,12 32,24 51,30 6,-17 -22,-16 -32,-28 -45,-31 -65,-88 -62,-142 14,-18 8,30 19,39 16,34 41,62 74,80 1,-19 3,-41 15,-57 17,-1 27,20 39,30 14,16 25,33 17,2 -6,-25 14,-17 10,3 7,43 28,84 59,116 14,15 32,29 51,37 18,5 8,20 0,29 -6,10 -16,27 -1,34 18,12 39,16 60,18 z m 34,-33 c -18,-2 -37,-1 -54,-8 7,-15 37,-8 53,-12 14,-10 23,-27 36,-39 16,-28 27,0 7,15 -12,15 -16,46 -42,44 z m -70,-45 c -15,-1 -32,-7 -43,-17 5,-17 22,-32 -9,-23 -20,8 -26,-15 -35,-28 -8,-12 -7,-41 12,-27 12,4 22,4 34,8 13,6 33,-1 40,14 15,14 33,33 29,55 -2,14 -17,18 -28,18 z m -57,-91 c 0,-1 -3,0 0,0 z m 204,16 c -15,-1 -32,-7 -43,-16 6,-18 23,-33 -8,-24 -27,12 -21,-17 -35,-3 -12,10 -24,12 -38,12 -1,-3 -29,-23 0,-8 24,9 46,-13 55,-35 9,-9 8,-47 24,-35 21,10 37,28 53,43 12,16 31,38 16,58 -7,6 -15,8 -24,8 z m 43,-37 c -11,-15 14,-50 9,-16 -2,5 1,18 -9,16 z m 17,-8 c -9,-7 7,-38 10,-17 -2,6 -2,16 -10,17 z M 399,651 c 14,-16 4,-23 -1,-2 0,1 -1,5 1,2 z m -96,-16 c 18,-11 33,-30 40,-49 -11,-11 -19,-25 -27,-38 -23,18 -53,26 -82,22 8,30 29,58 61,65 z m 23,-3 c 11,-5 51,-22 28,-34 -10,-5 -18,29 -31,35 z m -71,-70 c 20,-2 42,-9 56,-24 -6,-17 -15,-33 -29,-45 -15,-16 -28,-35 -46,-47 -13,36 -12,76 -3,113 7,4 15,1 22,3 z M 739,443 c 37,0 69,-25 87,-55 8,-14 13,-30 6,-45 -3,-17 -19,-29 -36,-32 -14,16 -38,20 -35,45 -11,29 -40,51 -66,61 10,13 26,27 44,26 z m -46,-36 c 29,-11 54,-34 62,-65 -8,-11 -26,-15 -38,-23 -25,-11 -52,-20 -79,-22 1,34 20,64 36,92 6,4 9,22 19,18 z M 534,348 c 42,2 72,-35 91,-69 1,-21 -27,-31 -41,-44 -30,-16 -62,-38 -98,-34 -22,37 -27,88 0,124 11,14 29,25 48,23 z m 307,-12 c 0,-20 -6,-44 -19,-62 -3,10 -13,20 -16,29 16,6 31,19 36,35 z m -82,-9 c 26,-15 54,-40 58,-73 11,-49 -7,-99 -32,-140 -21,-26.9 -50,-62 -88,-52 -20,4.3 -46,16.2 -44,41 0,53 -5,106 -16,158 -5,21 -4,29 19,29 30,6 60,15 86,31 6,2 11,9 17,6 z m 17,-23 c -7,-6 26,-33 4,-34 -7,2 -13,8 -20,16 -15,15 3,-21 5,-30 2,-40 -29,-3 -36,14 -6,16 -29,25 -15,0 19,-44 11,-93 4,-139 -5,-20 20,-30 35,-20 34,19 44,61 42,97 1,17 -3,35 -9,51 20,6 7,34 -2,43 -2,2 -5,3 -8,2 z M 629,258 c 3,-30 11,-61 11,-91 -12,-18 -31,-35 -52,-42 -38,11 -71,35 -96,66 26,0 51,10 73,22 23,12 45,27 63,46 z m 13,-107 c 17,-32 -20,-35 -35,-28 11,6 29,23 35,28 z M 369,664 c -1,-8 5,-33 17,-32 5,6 -8,34 -17,32 z" />
            </g>
        </svg>
    </g>
</svg>
